# File created by Blade
# Date/Time:  Tue Sep 30 19:10:51 2014
#---------------------------------------------------------
:version 1.10
:name HOM
:units
  mass 1.0
  length 1.000000
  angle deg
:documentation
     Acclaim Skeleton File
:root
   axis xyz
   order TX TY TZ RX RY RZ
   position 0.000000 0.000000 0.000000
   orientation 0 0 0
:bonedata
   begin
      id 1
      name Spine_dum
      direction 0.000000 1.000000 0.000000
      length 7.508948
      axis 0.0 0.0 0.0 xyz
   end
   begin
      id 2
      name LeftUpLeg_dum
      direction 1.000000 0.000000 0.000000
      length 3.000560
      axis 0.0 0.0 0.0 xyz
   end
   begin
      id 3
      name RightUpLeg_dum
      direction -1.000000 0.000000 0.000000
      length 3.000560
      axis 0.0 0.0 0.0 xyz
   end
   begin
      id 4
      name Spine
      direction 0.000000 1.000000 0.000000
      length 0.000000
      axis 0.0 0.0 0.0 xyz
      dof rx ry rz
   end
   begin
      id 5
      name Spine_dum1
      direction 0.000000 1.000000 0.000000
      length 13.861154
      axis 0.0 0.0 0.0 xyz
   end
   begin
      id 6
      name Spine_dum2
      direction 0.000000 1.000000 0.000000
      length 8.204781
      axis 0.0 0.0 0.0 xyz
   end
   begin
      id 7
      name Spine_dum3
      direction 0.000000 1.000000 0.000000
      length 8.204781
      axis 0.0 0.0 0.0 xyz
   end
   begin
      id 8
      name Head
      direction 0.000000 1.000000 0.000000
      length 4.527550
      axis 0.0 0.0 0.0 xyz
      dof rx ry rz
   end
   begin
      id 9
      name LeftShoulder
      direction 1.000000 0.000000 0.000000
      length 6.635956
      axis 0.0 0.0 -90.0 xyz
      dof rx ry rz
   end
   begin
      id 10
      name LeftArm
      direction 1.000000 0.000000 0.000000
      length 10.274218
      axis 0.0 0.0 -90.0 xyz
      dof rx ry rz
   end
   begin
      id 11
      name LeftForeArm
      direction 1.000000 0.000000 0.000000
      length 8.522147
      axis 0.0 0.0 -90.0 xyz
      dof ry rz rx
   end
   begin
      id 12
      name LeftHand
      direction 0.000000 0.000000 0.000000
      length 0.000000
      axis 0.0 0.0 -90.0 xyz
      dof rx ry rz
   end
   begin
      id 13
      name LeftHand_dum1
      direction 0.000000 0.000000 0.000000
      length 0.000000
      axis 0.0 0.0 -90.0 xyz
   end
   begin
      id 14
      name LeftHand_dum2
      direction 1.000000 0.000000 0.000000
      length 3.937000
      axis 0.0 0.0 -90.0 xyz
   end
   begin
      id 15
      name LeftHandThumb1
      direction 0.000000 0.000000 1.000000
      length 3.937000
      axis 0.0 0.0 -90.0 xyz
      dof rx rz ry
   end
   begin
      id 16
      name RightShoulder
      direction -1.000000 0.000000 0.000000
      length 6.635956
      axis 0.0 0.0 90.0 xyz
      dof rx ry rz
   end
   begin
      id 17
      name RightArm
      direction -1.000000 0.000000 0.000000
      length 10.274218
      axis 0.0 0.0 90.0 xyz
      dof rx ry rz
   end
   begin
      id 18
      name RightForeArm
      direction -1.000000 0.000000 0.000000
      length 8.522147
      axis 0.0 0.0 90.0 xyz
      dof ry rz rx
   end
   begin
      id 19
      name RightHand
      direction 0.000000 0.000000 0.000000
      length 0.000000
      axis 0.0 0.0 90.0 xyz
      dof rx ry rz
   end
   begin
      id 20
      name RightHand_dum1
      direction 0.000000 0.000000 0.000000
      length 0.000000
      axis 0.0 0.0 90.0 xyz
   end
   begin
      id 21
      name RightHand_dum2
      direction -1.000000 0.000000 0.000000
      length 3.937000
      axis 0.0 0.0 90.0 xyz
   end
   begin
      id 22
      name RightHandThumb1
      direction 0.000000 0.000000 1.000000
      length 3.937000
      axis 0.0 0.0 90.0 xyz
      dof rx rz ry
   end
   begin
      id 23
      name LeftUpLeg
      direction 0.000000 -1.000000 0.000000
      length 16.490845
      axis 0.0 0.0 0.0 xyz
      dof rx ry rz
   end
   begin
      id 24
      name LeftLeg
      direction 0.000000 -1.000000 0.000000
      length 14.556576
      axis 0.0 0.0 0.0 xyz
      dof rx ry rz
   end
   begin
      id 25
      name LeftFoot
      direction 0.000000 -0.258819 0.965926
      length 4.831116
      axis 15.0 0.0 0.0 xyz
      dof rx ry rz
   end
   begin
      id 26
      name LeftToeBase
      direction 0.000000 0.000000 1.000000
      length 2.952750
      axis 0.0 0.0 0.0 xyz
      dof rx ry rz
   end
   begin
      id 27
      name RightUpLeg
      direction 0.000000 -1.000000 0.000000
      length 16.490845
      axis 0.0 0.0 0.0 xyz
      dof rx ry rz
   end
   begin
      id 28
      name RightLeg
      direction 0.000000 -1.000000 0.000000
      length 14.556576
      axis 0.0 0.0 0.0 xyz
      dof rx ry rz
   end
   begin
      id 29
      name RightFoot
      direction 0.000000 -0.258819 0.965926
      length 4.831116
      axis 15.0 0.0 0.0 xyz
      dof rx ry rz
   end
   begin
      id 30
      name RightToeBase
      direction 0.000000 0.000000 1.000000
      length 2.952750
      axis 0.0 0.0 0.0 xyz
      dof rx ry rz
   end
:hierarchy
   begin
      root Spine_dum LeftUpLeg_dum RightUpLeg_dum
      Spine_dum Spine
      LeftUpLeg_dum LeftUpLeg
      RightUpLeg_dum RightUpLeg
      Spine Spine_dum1 Spine_dum2 Spine_dum3
      Spine_dum1 Head
      Spine_dum2 LeftShoulder
      Spine_dum3 RightShoulder
      LeftShoulder LeftArm
      LeftArm LeftForeArm
      LeftForeArm LeftHand
      LeftHand LeftHand_dum1 LeftHand_dum2
      LeftHand_dum1 LeftHandThumb1
      RightShoulder RightArm
      RightArm RightForeArm
      RightForeArm RightHand
      RightHand RightHand_dum1 RightHand_dum2
      RightHand_dum1 RightHandThumb1
      LeftUpLeg LeftLeg
      LeftLeg LeftFoot
      LeftFoot LeftToeBase
      RightUpLeg RightLeg
      RightLeg RightFoot
      RightFoot RightToeBase
   end

# File created by Blade
# Date/Time:  Wed Sep 24 19:25:39 2014
# Frame Rate: 120.000 fps
#------------------------------------------------------
:FULLY-SPECIFIED
:DEGREES
133
root -14.569172 32.634413 -3.595591 12.825270 -2.105969 5.725886
Spine -11.030210 7.214578 0.632137
Head 16.155487 1.984887 1.817069
LeftShoulder -13.730096 22.149112 8.642908
LeftArm 20.245351 28.043478 -75.577603
LeftForeArm 3.377958 -0.000000 24.160418
LeftHand -25.230590 -0.000000 -5.733070
LeftHandThumb1 -26.253704 0.000000 33.147579
RightShoulder -20.879960 6.547720 -21.757928
RightArm -20.106046 -8.858811 78.545144
RightForeArm -7.078291 -0.000000 75.385378
RightHand 0.068391 0.000000 -27.575732
RightHandThumb1 -24.326973 -0.000000 -32.862282
LeftUpLeg -17.955965 11.022815 -2.638619
LeftLeg 84.256024 -0.000000 -0.000000
LeftFoot 29.076094 18.606505 -16.747434
LeftToeBase 17.312648 -0.000000 -0.000000
RightUpLeg -18.020539 0.118172 -0.351572
RightLeg 20.902950 -0.000000 -0.000000
RightFoot -17.208678 -13.798707 -8.528394
RightToeBase 0.396191 -0.000000 -0.000000
134
root -14.589062 32.628931 -3.570541 12.782487 -2.171187 5.790136
Spine -11.001119 7.202576 0.549299
Head 16.834403 2.075225 1.846481
LeftShoulder -13.840146 22.261719 8.545629
LeftArm 20.336635 28.136858 -75.462959
LeftForeArm 3.510787 -0.000000 24.360870
LeftHand -25.152064 0.000000 -5.615826
LeftHandThumb1 -26.253704 0.000000 33.147579
RightShoulder -20.908144 6.504469 -21.711544
RightArm -20.201865 -9.195412 78.602028
RightForeArm -7.446748 -0.000000 75.392480
RightHand 0.156657 0.000000 -27.457043
RightHandThumb1 -24.326973 -0.000000 -32.862282
LeftUpLeg -17.683445 11.257752 -2.681337
LeftLeg 85.984000 -0.000000 -0.000000
LeftFoot 29.569956 18.560544 -17.272699
LeftToeBase 17.818007 -0.000000 -0.000000
RightUpLeg -17.974382 0.082373 -0.384050
RightLeg 20.982724 -0.000000 -0.000000
RightFoot -17.330480 -13.717211 -8.550334
RightToeBase 0.423268 -0.000000 -0.000000
135
root -14.609224 32.623723 -3.550807 12.783069 -2.237554 5.831290
Spine -10.998777 7.192681 0.497084
Head 17.456647 2.143958 1.828364
LeftShoulder -13.980020 22.393533 8.418039
LeftArm 20.452239 28.216083 -75.323977
LeftForeArm 3.609067 -0.000000 24.612681
LeftHand -25.037810 -0.000000 -5.634852
LeftHandThumb1 -26.253704 0.000000 33.147579
RightShoulder -21.009039 6.333955 -21.658685
RightArm -20.098761 -9.577208 78.666266
RightForeArm -7.649265 -0.000000 75.337478
RightHand 0.250085 -0.000000 -27.253408
RightHandThumb1 -24.326973 -0.000000 -32.862282
LeftUpLeg -17.476958 11.555137 -2.737761
LeftLeg 87.712746 -0.000000 -0.000000
LeftFoot 30.211281 18.242073 -16.884464
LeftToeBase 16.935839 -0.000000 -0.000000
RightUpLeg -17.984592 0.080625 -0.398695
RightLeg 21.070391 -0.000000 -0.000000
RightFoot -17.415749 -13.651586 -8.583130
RightToeBase 0.404393 -0.000000 -0.000000
136
root -14.632113 32.618072 -3.532044 12.786441 -2.261416 5.835126
Spine -10.992574 7.175451 0.498125
Head 18.037948 2.242620 1.786187
LeftShoulder -14.099555 22.514116 8.278846
LeftArm 20.540603 28.258767 -75.205311
LeftForeArm 3.795227 0.000000 24.930957
LeftHand -25.181568 -0.000000 -5.621041
LeftHandThumb1 -26.253704 0.000000 33.147579
RightShoulder -21.081767 6.160775 -21.591435
RightArm -20.023388 -9.933279 78.728796
RightForeArm -7.953811 -0.000000 75.277174
RightHand 0.246438 -0.000000 -27.290501
RightHandThumb1 -24.326973 -0.000000 -32.862282
LeftUpLeg -17.264492 11.838735 -2.735114
LeftLeg 89.401921 -0.000000 -0.000000
LeftFoot 30.335141 18.460360 -16.949920
LeftToeBase 16.874077 -0.000000 -0.000000
RightUpLeg -17.984153 0.085751 -0.360409
RightLeg 21.132652 -0.000000 -0.000000
RightFoot -17.499179 -13.635366 -8.477311
RightToeBase 0.389495 -0.000000 -0.000000
137
root -14.655280 32.611662 -3.515267 12.800663 -2.278245 5.844347
Spine -10.982886 7.146716 0.484522
Head 18.599562 2.301731 1.766565
LeftShoulder -14.223551 22.577419 8.156388
LeftArm 20.572782 28.281242 -75.117201
LeftForeArm 3.989634 0.000000 25.244038
LeftHand -25.111512 0.000000 -5.715373
LeftHandThumb1 -26.253704 0.000000 33.147579
RightShoulder -21.130926 6.038773 -21.490707
RightArm -19.981710 -10.310407 78.741053
RightForeArm -8.143526 -0.000000 75.211297
RightHand 0.232076 0.000000 -27.333289
RightHandThumb1 -24.326973 -0.000000 -32.862282
LeftUpLeg -17.071732 12.132422 -2.740219
LeftLeg 91.067201 -0.000000 -0.000000
LeftFoot 30.378754 18.774152 -16.977462
LeftToeBase 16.615650 -0.000000 -0.000000
RightUpLeg -17.990899 0.146209 -0.345093
RightLeg 21.192668 -0.000000 -0.000000
RightFoot -17.531716 -13.675958 -8.627998
RightToeBase 0.373965 -0.000000 -0.000000
